<svg id="Camada_1" data-name="Camada 1" xmlns="http://www.w3.org/2000/svg" viewBox="0 0 960.37 297.52"><defs><style>.cls-1,.cls-2,.cls-3,.cls-4,.cls-5,.cls-6{fill:#ff1616;}.cls-2{font-size:78.83px;font-family:OpenSans-SemiBold, Open Sans;font-weight:600;}.cls-3{font-size:59.39px;}.cls-3,.cls-4,.cls-5{font-family:OpenSans-Bold, Open Sans;font-weight:700;}.cls-4{font-size:44.75px;}.cls-5{font-size:48.11px;}.cls-6{font-size:173.87px;font-family:Bukhari-Script, Bukhari Script;}.cls-7{fill:#000;}.cls-8{letter-spacing:0.02em;}</style></defs><title>Auto Calc</title><path class="cls-1" d="M253.3,367.54H40.48a11.6,11.6,0,0,0-11.61,11.6V592a11.6,11.6,0,0,0,11.61,11.6H253.3A11.61,11.61,0,0,0,264.91,592V379.14A11.61,11.61,0,0,0,253.3,367.54ZM93.63,393.62a38,38,0,1,1-38,38A38,38,0,0,1,93.63,393.62Zm0,183.87a38,38,0,1,1,38-38A38,38,0,0,1,93.63,577.49Zm55.68-10.78h-4.84V488H65.72v-4.84h78.75V404.4h4.84v78.74H228V488H149.31Zm50.84,10.78a38,38,0,1,1,38-38A38,38,0,0,1,200.15,577.49Zm0-107.93a38,38,0,1,1,38-38A38,38,0,0,1,200.15,469.56Z" transform="translate(-28.87 -367.54)"/><text class="cls-2" transform="translate(158.59 86.35)">-</text><text class="cls-3" transform="translate(47.81 85.46)">+</text><text class="cls-4" transform="translate(50.64 184.79)">x</text><text class="cls-5" transform="translate(157.54 190.08)">รท</text><text class="cls-6" transform="translate(280.5 189.55) scale(0.99 1)">A<tspan class="cls-7" x="111.79" y="0">uto</tspan><tspan class="cls-8" x="353.11" y="0">C</tspan><tspan class="cls-7" x="441.09" y="0">alc</tspan></text></svg>