<svg id="Camada_1" data-name="Camada 1" xmlns="http://www.w3.org/2000/svg" viewBox="0 0 960.37 236.03"><defs><style>.cls-1{fill:#ff1616;}</style></defs><title>Auto Calc</title><path class="cls-1" d="M253.3,367.54H40.48a11.6,11.6,0,0,0-11.61,11.6V592a11.6,11.6,0,0,0,11.61,11.6H253.3A11.61,11.61,0,0,0,264.91,592V379.14A11.61,11.61,0,0,0,253.3,367.54ZM93.63,393.62a38,38,0,1,1-38,38A38,38,0,0,1,93.63,393.62Zm0,183.87a38,38,0,1,1,38-38A38,38,0,0,1,93.63,577.49Zm55.68-10.78h-4.84V488H65.72v-4.84h78.75V404.4h4.84v78.74H228V488H149.31Zm50.84,10.78a38,38,0,1,1,38-38A38,38,0,0,1,200.15,577.49Zm0-107.93a38,38,0,1,1,38-38A38,38,0,0,1,200.15,469.56Z" transform="translate(-28.87 -367.54)"/><path class="cls-1" d="M190.23,436.61v-7.7H210v7.7Z" transform="translate(-28.87 -367.54)"/><path class="cls-1" d="M90.45,435.25H79.23V428.9H90.45V417.59H96.8V428.9H108v6.35H96.8v11.17H90.45Z" transform="translate(-28.87 -367.54)"/><path class="cls-1" d="M88,539.86l-7.86-12H87.7l4.74,7.78,4.79-7.78h7.56l-8,12,8.33,12.47H97.57L92.44,544l-5.16,8.37H79.72Z" transform="translate(-28.87 -367.54)"/><path class="cls-1" d="M188.48,543.24V538.1h23.33v5.14Zm8.36-10.78a3.73,3.73,0,0,1,.87-2.67,3.21,3.21,0,0,1,2.42-.9,3.08,3.08,0,0,1,2.42,1,3.79,3.79,0,0,1,.85,2.62,3.71,3.71,0,0,1-.87,2.6,3.1,3.1,0,0,1-2.4,1,3.19,3.19,0,0,1-2.41-.92A3.68,3.68,0,0,1,196.84,532.46Zm0,16.4a3.67,3.67,0,0,1,.87-2.67,3.24,3.24,0,0,1,2.42-.88,3.13,3.13,0,0,1,2.41.92,3.7,3.7,0,0,1,.86,2.63,3.76,3.76,0,0,1-.87,2.61,3.08,3.08,0,0,1-2.4,1,3.19,3.19,0,0,1-2.41-.92A3.7,3.7,0,0,1,196.84,548.86Z" transform="translate(-28.87 -367.54)"/><path class="cls-1" d="M428.48,505.1q1.72-5.39,5.86-7.47a11.93,11.93,0,0,1,8.1-1.22,10.3,10.3,0,0,1,6.38,4.26q2.42,3.39.69,8.78a145.81,145.81,0,0,1-9.14,21.65,79.38,79.38,0,0,1-11.72,16.95,48.58,48.58,0,0,1-14.65,11A40.25,40.25,0,0,1,396.25,563a38.26,38.26,0,0,1-16-3.3A28.47,28.47,0,0,1,368.49,550a46,46,0,0,1-14.39,9.74,40,40,0,0,1-15.6,3.3,36.88,36.88,0,0,1-13.36-2.35,33.23,33.23,0,0,1-10.69-6.52,29.68,29.68,0,0,1-7.15-10,31.22,31.22,0,0,1-2.59-12.78,38.79,38.79,0,0,1,2.42-13l27.23-77.89a38.72,38.72,0,0,1,6.29-11.13,39.19,39.19,0,0,1,8.8-7.91,41.68,41.68,0,0,1,10.42-5,54.15,54.15,0,0,1,11-2.26,51.09,51.09,0,0,1,6.46.09,36.24,36.24,0,0,1,7.59,1.39,32.82,32.82,0,0,1,7.41,3.22,17.85,17.85,0,0,1,5.77,5.39,14,14,0,0,1,4-7.13,16.66,16.66,0,0,1,14-4.52,12,12,0,0,1,6.46,2.87,12.83,12.83,0,0,1,3.8,6.52q1.11,4.17-.61,10.25L393,525.1a26.68,26.68,0,0,0-1.9,8.87,6.82,6.82,0,0,0,2,5.3,7.42,7.42,0,0,0,5.25,1.82q8.44,0,16.29-9.56T428.48,505.1Zm-84.12,31.65q6.56,0,12.84-5.83t11.12-17.82l19.82-56.68a16.66,16.66,0,0,0-.51-6.26A16.87,16.87,0,0,0,385,444.6a14,14,0,0,0-4.49-3.91,12,12,0,0,0-5.94-1.48,14,14,0,0,0-9.66,3.39,22,22,0,0,0-6.55,9.82L335.4,518.84A23.37,23.37,0,0,0,334,526a11.08,11.08,0,0,0,2.76,7.74A9.72,9.72,0,0,0,344.36,536.75Z" transform="translate(-28.87 -367.54)"/><path d="M519,512.75q1.54-5,5.6-6.78a12.8,12.8,0,0,1,7.93-.87,11.29,11.29,0,0,1,6.38,3.92c1.66,2,2,4.6.94,7.73a107,107,0,0,1-10.34,22.52,63.29,63.29,0,0,1-11.89,14.26,37.79,37.79,0,0,1-25.17,9.64A32.09,32.09,0,0,1,478.12,560a26.2,26.2,0,0,1-10.34-8.78,43,43,0,0,1-11.29,8.69,29.52,29.52,0,0,1-14.22,3.48,28.8,28.8,0,0,1-10.17-1.74,25.81,25.81,0,0,1-8.19-4.87,22.1,22.1,0,0,1-5.52-7.47,22.83,22.83,0,0,1-2-9.57,29.37,29.37,0,0,1,1.55-9.21l21.21-59.81a15,15,0,0,1,4.39-6.87,12.73,12.73,0,0,1,6-2.87,13,13,0,0,1,6.3.52,12.37,12.37,0,0,1,5.25,3.39,11.77,11.77,0,0,1,2.85,5.74,13.78,13.78,0,0,1-.86,7.56L443.3,532.92a18.36,18.36,0,0,0-.86,4.87q0,4.35,4,4.35a11.81,11.81,0,0,0,5.34-1.39,28.47,28.47,0,0,0,5.52-3.74,33.4,33.4,0,0,0,5.08-5.48,49.38,49.38,0,0,0,4.22-6.78l19-53.9q2.4-6.78,7.24-9a12.49,12.49,0,0,1,9.3-.7,12.78,12.78,0,0,1,7.07,5.74q2.6,4.26.52,10.17L489.16,535.7a7.42,7.42,0,0,0-.52,2.61,3.75,3.75,0,0,0,1.38,3.05,5.83,5.83,0,0,0,3.79,1.13q5.87,0,12.58-7T519,512.75Z" transform="translate(-28.87 -367.54)"/><path d="M574.48,513.62a11.08,11.08,0,0,1,6-6.78,12.82,12.82,0,0,1,7.93-.87,10.39,10.39,0,0,1,6.12,3.92c1.55,2,1.81,4.6.78,7.73q-7.43,21.57-20.52,33.21T545,562.48a41.79,41.79,0,0,1-12.72-1.91A32.25,32.25,0,0,1,521.75,555a27.91,27.91,0,0,1-7.28-8.86,25.14,25.14,0,0,1-2.74-11.83,37.57,37.57,0,0,1,2.06-11.65v.18q1.88-5.57,3.59-10.35t3.34-9.47q1.62-4.69,3.34-9.48t3.6-10.34H522a6.56,6.56,0,0,1-5.86-3.22,10.62,10.62,0,0,1-1.64-7.13,12,12,0,0,1,3.53-7.13q3.11-3.21,9.66-3.21h7.19l13.08-36.69q2.07-6.6,6.81-8.69a14,14,0,0,1,9.22-1,13,13,0,0,1,7.33,4.87,9.21,9.21,0,0,1,1.29,8.78l-11.37,32.69H569q5.52,0,7.76,3.21a9.54,9.54,0,0,1,1.64,7.13,12.33,12.33,0,0,1-4.05,7.13q-3.45,3.22-9.31,3.22H553.79l-16.37,46.38a9.55,9.55,0,0,0-.69,3.84,7.74,7.74,0,0,0,2.67,5.93,10.44,10.44,0,0,0,7.33,2.44q7.57,0,15.08-6.87T574.48,513.62Z" transform="translate(-28.87 -367.54)"/><path d="M642.4,526.14a3.61,3.61,0,0,0,1.2.18h1.21a19.27,19.27,0,0,0,13.36-5.05,31.8,31.8,0,0,0,8.53-13.21q1.72-5.74,5.86-7.82a11.31,11.31,0,0,1,8-1.13A9.6,9.6,0,0,1,686.7,504q2.24,3.91.17,10.18a53.89,53.89,0,0,1-6.21,12.77,45.4,45.4,0,0,1-9.48,10.44,46.18,46.18,0,0,1-12.24,7,39.16,39.16,0,0,1-14.3,2.61,38.35,38.35,0,0,1-10.35-1.4,33.25,33.25,0,0,1-14.13,13.57,42.58,42.58,0,0,1-18.79,4.17,39.78,39.78,0,0,1-12.58-2,33.83,33.83,0,0,1-10.69-5.74,27.45,27.45,0,0,1-7.41-9.21,26.86,26.86,0,0,1-2.76-12.26,32.37,32.37,0,0,1,.6-6.09,60.76,60.76,0,0,1,1.64-6.43l14-38.77A34.67,34.67,0,0,1,590,472.5a36.74,36.74,0,0,1,8.71-7.73A40.22,40.22,0,0,1,609.38,460a42.81,42.81,0,0,1,11.81-1.66,41.68,41.68,0,0,1,13.19,2.09,32,32,0,0,1,10.86,6,27.1,27.1,0,0,1,7.07,9.39,24.22,24.22,0,0,1,2,12.08,41.23,41.23,0,0,1-1.21,6.78c-.69,2.78-1.49,5.6-2.41,8.43s-1.9,5.51-2.93,8a35.06,35.06,0,0,1-2.59,5.31,14.45,14.45,0,0,1-3.44,3.82,27.74,27.74,0,0,1,.6,4.26Q642.4,526.32,642.4,526.14Zm-16-26.77q.87-2.79,2.07-6.52a20.82,20.82,0,0,0,1.21-6.18,7.26,7.26,0,0,0-2.41-5.3,8.79,8.79,0,0,0-6.38-2.35,12.56,12.56,0,0,0-12.07,9q-5.68,13.57-9.13,22.87t-5.35,15.21c-.34,1-.72,2.47-1.12,4.26a16,16,0,0,0-.26,5.48,8.8,8.8,0,0,0,2.07,4.78q1.72,2,6,2a12.08,12.08,0,0,0,7.24-2.52,15.16,15.16,0,0,0,5.18-7,.48.48,0,0,1,.17-.35,27.5,27.5,0,0,1-4.31-4.7,12.63,12.63,0,0,1-2.07-7.12,18,18,0,0,1,1.47-7.22,16.92,16.92,0,0,1,4-5.74,16,16,0,0,1,5.69-3.47,15.57,15.57,0,0,1,6.81-.79,13.14,13.14,0,0,1,.51-2.08C625.9,500.93,626.13,500.18,626.36,499.37Z" transform="translate(-28.87 -367.54)"/><path class="cls-1" d="M750.13,510.84A8.33,8.33,0,0,1,755,504.5a12.66,12.66,0,0,1,7.84-.79,11.13,11.13,0,0,1,6.55,4.18c1.73,2.2,2,5.1.87,8.69a62.66,62.66,0,0,1-11.21,21.65,67.78,67.78,0,0,1-16,14.34,63.28,63.28,0,0,1-18.53,8,77.22,77.22,0,0,1-18.7,2.43,62.64,62.64,0,0,1-20.52-3.21,51,51,0,0,1-16-8.79,39.57,39.57,0,0,1-10.43-13,35.5,35.5,0,0,1-3.7-16,49.74,49.74,0,0,1,2.93-16.52l21.55-62.59q4-11,9.91-17.3A44.55,44.55,0,0,1,701.86,416a38.49,38.49,0,0,1,12.5-4A43.63,43.63,0,0,1,740,416a27.66,27.66,0,0,1,10.35,8.6,28.41,28.41,0,0,1,4.91,12.87,41.12,41.12,0,0,1-1.55,16.69q-1.72,6.61-4.83,10.09a16.82,16.82,0,0,1-6.63,4.78,12.11,12.11,0,0,1-7,.52,13.86,13.86,0,0,1-5.94-2.87,11.85,11.85,0,0,1-3.62-5.13A8.81,8.81,0,0,1,726,455q3.27-8,1.63-12.26c-1.09-2.84-3-4.31-5.6-4.43a31.26,31.26,0,0,0-3.53.26,11.42,11.42,0,0,0-4.4,1.57,16.15,16.15,0,0,0-4.39,4,23.65,23.65,0,0,0-3.71,7.39L684.28,513.1a18.31,18.31,0,0,0-1.12,4.44,35.2,35.2,0,0,0-.26,4.08,14.16,14.16,0,0,0,2.33,7.91,22,22,0,0,0,6.12,6.17,30.92,30.92,0,0,0,8.62,4.09,33.75,33.75,0,0,0,10,1.48,39.89,39.89,0,0,0,10.95-1.65,40.6,40.6,0,0,0,11.29-5.31,45.14,45.14,0,0,0,10.17-9.39A49.54,49.54,0,0,0,750.13,510.84Z" transform="translate(-28.87 -367.54)"/><path d="M841.14,515.88a13.94,13.94,0,0,1,3.62-6.08,12.42,12.42,0,0,1,11-3.3,8.72,8.72,0,0,1,4.74,2.43,9,9,0,0,1,2.41,4.95,13.38,13.38,0,0,1-1.2,7.22c-.69,1.86-1.3,3.33-1.81,4.43s-1.13,2.47-1.81,4.09a78.09,78.09,0,0,1-9.66,15.73,50.69,50.69,0,0,1-10.68,10.09,40.14,40.14,0,0,1-11.21,5.39,39.51,39.51,0,0,1-11,1.65,51,51,0,0,1-5.26-.35,32.18,32.18,0,0,1-6.64-1.48,27.75,27.75,0,0,1-6.63-3.21,15.73,15.73,0,0,1-5.09-5.39,35.69,35.69,0,0,1-10.43,6.52,30.77,30.77,0,0,1-11.63,2.35,26.84,26.84,0,0,1-10.6-2.09,26.11,26.11,0,0,1-8.45-5.65,26.87,26.87,0,0,1-5.6-8.35,25.3,25.3,0,0,1-2.07-10.17,25.56,25.56,0,0,1,.43-4.69,33.25,33.25,0,0,1,1.29-4.7L761,479.2q3.78-9.92,11.8-14.78a31.69,31.69,0,0,1,16.64-4.87,35.83,35.83,0,0,1,19.82,5.39,14.07,14.07,0,0,1,8-4.95,15.34,15.34,0,0,1,9.05.43,12,12,0,0,1,6.38,5.65q2.24,4.1,0,10.69L813.39,532.4a19.82,19.82,0,0,0-.86,5q0,4.35,4.65,4.35,5.87,0,12.07-6.09T841.14,515.88ZM775.47,535.7a6.32,6.32,0,0,0,3,0,10.77,10.77,0,0,0,3.88-1.73,19.69,19.69,0,0,0,4.31-4.26,31.17,31.17,0,0,0,4.14-7.74l6.2-17.91a31.76,31.76,0,0,0,2-10,13.45,13.45,0,0,0-1.12-5.73,5.7,5.7,0,0,0-2.25-2.61,6.74,6.74,0,0,0-1.37-.61,4.76,4.76,0,0,0-1.47-.44,5.63,5.63,0,0,0-3.19.53,11.55,11.55,0,0,0-4.05,3.3,27.63,27.63,0,0,0-4.22,8.08l-9,26.95a20.41,20.41,0,0,0-.86,3.22,12.79,12.79,0,0,0-.17,3.65,7.29,7.29,0,0,0,1.12,3.31A4.77,4.77,0,0,0,775.47,535.7Z" transform="translate(-28.87 -367.54)"/><path d="M860.27,534.14a10.26,10.26,0,0,0-.51,1.65,6,6,0,0,0-.18,1.31,4.54,4.54,0,0,0,1.38,3.3,5.33,5.33,0,0,0,4,1.39q6,0,13-7t12.85-22.77q2.24-5.91,6.37-7.83a11.31,11.31,0,0,1,7.93-.86,10.23,10.23,0,0,1,6,4.52q2.24,3.48.68,8.17a94.05,94.05,0,0,1-10.42,22.51A64.21,64.21,0,0,1,889,552.83a40.44,40.44,0,0,1-13.18,7.48,42.22,42.22,0,0,1-12.93,2.17A35.53,35.53,0,0,1,852,560.83a28,28,0,0,1-9-4.78,22.34,22.34,0,0,1-6.12-7.74,24.2,24.2,0,0,1-2.24-10.69,35.2,35.2,0,0,1,2.07-11.3l33.78-98.93a17.58,17.58,0,0,1,4.4-7.39,14.87,14.87,0,0,1,6.12-3.65,13.24,13.24,0,0,1,6.55-.27A11.2,11.2,0,0,1,893,419a11,11,0,0,1,3,5.65,14.62,14.62,0,0,1-.95,8.18Z" transform="translate(-28.87 -367.54)"/><path d="M968.18,511a9.4,9.4,0,0,1,5.6-6.26,12.28,12.28,0,0,1,7.85-.53,11.4,11.4,0,0,1,6.2,4.26q2.42,3.22.69,7.92a74.85,74.85,0,0,1-10.69,20.51,65.68,65.68,0,0,1-14.73,14.43,60.41,60.41,0,0,1-17.5,8.52,65.49,65.49,0,0,1-18.79,2.78,54.84,54.84,0,0,1-17.32-2.6A42.62,42.62,0,0,1,896,552.92a31.64,31.64,0,0,1-8.7-10.87,31,31,0,0,1-3.11-13.82,38.65,38.65,0,0,1,2.07-12.17l9.83-29.21A39.35,39.35,0,0,1,902.25,475a36.87,36.87,0,0,1,8.62-8.26A35.17,35.17,0,0,1,921,462,39.05,39.05,0,0,1,932,460.42a26.47,26.47,0,0,1,12.84,3.13,25.45,25.45,0,0,1,9.31,8.52,27.76,27.76,0,0,1,4.31,12.34,33.11,33.11,0,0,1-2,14.78q-2.94,7.65-8,9.83a12.68,12.68,0,0,1-9.48.61,11.75,11.75,0,0,1-6.63-5.83q-2.25-4.26.34-9.48,2.42-4.51,1.72-7.82t-4.65-3.65a6.25,6.25,0,0,0-4.48,1.65,11.48,11.48,0,0,0-3.45,5.13v-.17l-10.69,30.25a22.2,22.2,0,0,0-1,6.26,14.13,14.13,0,0,0,5.26,11.13q5.25,4.51,14.22,4.52A35,35,0,0,0,939.82,540a37,37,0,0,0,10.61-5.3,48.63,48.63,0,0,0,9.82-9.47A54.49,54.49,0,0,0,968.18,511Z" transform="translate(-28.87 -367.54)"/></svg>