<svg id="Camada_1" data-name="Camada 1" xmlns="http://www.w3.org/2000/svg" viewBox="0 0 970.07 970"><defs><style>.cls-1,.cls-2,.cls-3,.cls-4,.cls-5{fill:#ff1616;}.cls-2{font-size:323.96px;font-family:OpenSans-SemiBold, Open Sans;font-weight:600;}.cls-3{font-size:244.06px;}.cls-3,.cls-4,.cls-5{font-family:OpenSans-Bold, Open Sans;font-weight:700;}.cls-4{font-size:183.91px;}.cls-5{font-size:197.73px;}</style></defs><title>auto calc - icon</title><path class="cls-1" d="M937.31,15H62.69A47.69,47.69,0,0,0,15,62.65v874.7A47.69,47.69,0,0,0,62.69,985H937.31A47.69,47.69,0,0,0,985,937.35V62.65A47.69,47.69,0,0,0,937.31,15ZM281.11,122.17a156,156,0,1,1-156,156.08A156.06,156.06,0,0,1,281.11,122.17Zm0,755.66A156,156,0,1,1,437.19,721.75,156,156,0,0,1,281.11,877.83ZM510,833.54h-19.9V509.92H166.43V490H490.05V166.46H510V490.08H833.51v19.84H510Zm208.94,44.29A156.1,156.1,0,0,1,562.81,721.75c0-86.14,69.93-156,156.08-156a156,156,0,1,1,0,312.08Zm0-443.58c-86.15,0-156.08-69.86-156.08-156a156.08,156.08,0,1,1,156.08,156Z" transform="translate(-14.97 -15)"/><text class="cls-2" transform="translate(651.77 354.88)">-</text><text class="cls-3" transform="translate(196.47 351.2)">+</text><text class="cls-4" transform="translate(208.1 759.44)">x</text><text class="cls-5" transform="translate(647.46 781.17)">รท</text></svg>