<svg id="Camada_1" data-name="Camada 1" xmlns="http://www.w3.org/2000/svg" viewBox="0 0 889.31 889.25"><defs><style>.cls-1{fill:#ff1616;}</style></defs><title>auto calc - icon</title><path class="cls-1" d="M900.91,56.93H99.09a43.72,43.72,0,0,0-43.74,43.68V902.49a43.72,43.72,0,0,0,43.74,43.69H900.91a43.72,43.72,0,0,0,43.74-43.69V100.61A43.72,43.72,0,0,0,900.91,56.93ZM299.33,155.18a143.05,143.05,0,1,1-143,143.08A143.07,143.07,0,0,1,299.33,155.18Zm0,692.75A143.06,143.06,0,1,1,442.42,704.85,143.06,143.06,0,0,1,299.33,847.93Zm209.79-40.61H490.88V510.65H194.2V492.4H490.88V195.78h18.24V492.46H805.74v18.19H509.12Zm191.55,40.61A143.06,143.06,0,1,1,843.75,704.85,143.11,143.11,0,0,1,700.67,847.93Zm0-406.65a143.05,143.05,0,1,1,143.08-143A143.1,143.1,0,0,1,700.67,441.28Z" transform="translate(-55.35 -56.93)"/><path class="cls-1" d="M663.3,317.15v-29h74.54v29Z" transform="translate(-55.35 -56.93)"/><path class="cls-1" d="M287.36,312H245.08V288.11h42.28V245.5h23.92v42.61h42.28V312H311.28v42.06H287.36Z" transform="translate(-55.35 -56.93)"/><path class="cls-1" d="M278.14,706.14l-29.63-45H277l17.86,29.31,18-29.31h28.49l-30,45,31.37,47H314.2l-19.35-31.53-19.42,31.53H246.94Z" transform="translate(-55.35 -56.93)"/><path class="cls-1" d="M656.7,718.9V699.52h87.89V718.9Zm31.51-40.63q0-6.63,3.27-10t9.12-3.41q5.92,0,9.11,3.58t3.19,9.87q0,6.19-3.28,9.78t-9,3.59q-5.76,0-9.08-3.45T688.21,678.27Zm0,61.78q0-6.72,3.27-10t9.12-3.32q5.83,0,9.07,3.45t3.23,9.91q0,6.21-3.28,9.83t-9,3.63q-5.76,0-9.08-3.46T688.21,740.05Z" transform="translate(-55.35 -56.93)"/></svg>