<svg width="18" height="18" viewBox="0 0 18 18" fill="none" xmlns="http://www.w3.org/2000/svg">
<path fill-rule="evenodd" clip-rule="evenodd" d="M11.928 10.8082H12.6951L17.5403 15.6631L16.0936 17.1099L11.2386 12.2646V11.4976L10.9764 11.2257C9.86947 12.1773 8.4324 12.7501 6.86909 12.7501C3.38322 12.7501 0.557617 9.92455 0.557617 6.43867C0.557617 2.9528 3.38322 0.127197 6.86909 0.127197C10.355 0.127197 13.1806 2.9528 13.1806 6.43867C13.1806 8.00198 12.6077 9.43905 11.6561 10.546L11.928 10.8082ZM2.49961 6.43867C2.49961 8.85645 4.45131 10.8082 6.86909 10.8082C9.28687 10.8082 11.2386 8.85645 11.2386 6.43867C11.2386 4.02089 9.28687 2.06919 6.86909 2.06919C4.45131 2.06919 2.49961 4.02089 2.49961 6.43867Z" fill="white"/>
</svg>
